<svg xmlns="http://www.w3.org/2000/svg" width="32" height="32">
  <path d="M16 0C7.162 0 0 7.345 0 16.405c0 7.248 4.584 13.397 10.942 15.567.8.15 1.092-.357 1.092-.792 0-.388-.013-1.42-.02-2.79-4.452.992-5.39-2.2-5.39-2.2-.73-1.893-1.778-2.398-1.778-2.398-1.452-1.018.11-.998.11-.998 1.606.117 2.45 1.69 2.45 1.69 1.428 2.508 3.746 1.784 4.658 1.365.145-1.062.558-1.785 1.015-2.195-3.553-.413-7.29-1.82-7.29-8.108 0-1.79.625-3.255 1.648-4.402-.165-.415-.714-2.082.157-4.34 0 0 1.343-.442 4.4 1.68 1.276-.363 2.645-.545 4.005-.55 1.36.005 2.728.187 4.006.55 3.055-2.122 4.395-1.68 4.395-1.68.875 2.258.326 3.925.16 4.34 1.026 1.147 1.646 2.612 1.646 4.402 0 6.303-3.74 7.69-7.306 8.095.575.507 1.086 1.508 1.086 3.04 0 2.19-.02 3.96-.02 4.498 0 .44.29.95 1.1.79C27.42 29.796 32 23.65 32 16.405 32 7.345 24.836 0 16 0" fill="#1b1817" fill-rule="evenodd"/>
</svg>
